<svg width="27" height="27" viewBox="0 0 27 27" fill="none" xmlns="http://www.w3.org/2000/svg">
<path fill-rule="evenodd" clip-rule="evenodd" d="M24.75 18V13.5C24.75 10.3185 24.75 8.72663 23.7611 7.73888C22.833 6.80963 21.3727 6.75338 18.5625 6.75V24.75C21.3727 24.7466 22.833 24.6904 23.7611 23.7611C24.75 22.7734 24.75 21.1804 24.75 18ZM21.375 12.3761C21.6734 12.3761 21.9595 12.4947 22.1705 12.7056C22.3815 12.9166 22.5 13.2028 22.5 13.5011C22.5 13.7995 22.3815 14.0856 22.1705 14.2966C21.9595 14.5076 21.6734 14.6261 21.375 14.6261C21.0766 14.6261 20.7905 14.5076 20.5795 14.2966C20.3685 14.0856 20.25 13.7995 20.25 13.5011C20.25 13.2028 20.3685 12.9166 20.5795 12.7056C20.7905 12.4947 21.0766 12.3761 21.375 12.3761ZM21.375 16.8761C21.6734 16.8761 21.9595 16.9947 22.1705 17.2056C22.3815 17.4166 22.5 17.7028 22.5 18.0011C22.5 18.2995 22.3815 18.5856 22.1705 18.7966C21.9595 19.0076 21.6734 19.1261 21.375 19.1261C21.0766 19.1261 20.7905 19.0076 20.5795 18.7966C20.3685 18.5856 20.25 18.2995 20.25 18.0011C20.25 17.7028 20.3685 17.4166 20.5795 17.2056C20.7905 16.9947 21.0766 16.8761 21.375 16.8761Z" fill="#3399FE"/>
<path d="M17.5162 3.92398L15.0919 6.74998H16.875V24.75H9C5.8185 24.75 4.22662 24.75 3.23887 23.7611C2.25 22.7734 2.25 21.1815 2.25 18.0011V13.5011C2.25 10.3174 2.25 8.72661 3.23887 7.73886C4.22662 6.74998 5.8185 6.74998 9 6.74998H11.907L9.48375 3.92398C9.34665 3.75318 9.28133 3.53575 9.30162 3.31767C9.3219 3.09959 9.42619 2.89794 9.59245 2.75535C9.7587 2.61276 9.97389 2.54041 10.1925 2.55359C10.4111 2.56677 10.6161 2.66445 10.764 2.82598L13.5 6.01648L16.2338 2.82598C16.3794 2.65591 16.5866 2.55065 16.8098 2.53335C17.033 2.51605 17.2539 2.58813 17.424 2.73373C17.5941 2.87934 17.6993 3.08654 17.7166 3.30975C17.7339 3.53297 17.6619 3.75391 17.5162 3.92398Z" fill="#3399FE"/>
</svg>
