<svg width="28" height="28" viewBox="0 0 28 28" fill="none" xmlns="http://www.w3.org/2000/svg">
<g clip-path="url(#clip0_2282_16373)">
<path d="M14.5897 24.181L3.41992 13.0112V15.2931C3.41992 15.8978 3.65952 16.4797 4.09308 16.9018L12.981 25.7898C13.8709 26.6797 15.3199 26.6797 16.2099 25.7898L23.2951 18.7045C24.185 17.8146 24.185 16.3656 23.2951 15.4757L14.5897 24.181Z" fill="white"/>
<path d="M12.981 20.0854C13.8709 20.9754 15.3199 20.9754 16.2099 20.0854L23.2951 13.0002C24.185 12.1103 24.185 10.6613 23.2951 9.77135L14.4072 0.883425C13.9738 0.46048 13.3926 0.223101 12.787 0.22168L5.7018 0.22168C4.44677 0.22168 3.41992 1.24853 3.41992 2.50356V9.58879C3.41992 10.1935 3.65952 10.7754 4.09308 11.1975L12.981 20.0854ZM8.26892 3.6445C8.64716 3.6445 9.00991 3.79476 9.27737 4.06222C9.54483 4.32968 9.69509 4.69243 9.69509 5.07067C9.69509 5.44892 9.54483 5.81167 9.27737 6.07913C9.00991 6.34659 8.64716 6.49685 8.26892 6.49685C7.89067 6.49685 7.52792 6.34659 7.26046 6.07913C6.993 5.81167 6.84274 5.44892 6.84274 5.07067C6.84274 4.69243 6.993 4.32968 7.26046 4.06222C7.52792 3.79476 7.89067 3.6445 8.26892 3.6445Z" fill="white"/>
</g>
<defs>
<clipPath id="clip0_2282_16373">
<rect width="27.3826" height="27.3826" fill="white" transform="translate(0 0.221558)"/>
</clipPath>
</defs>
</svg>
