<svg width="33" height="16" viewBox="0 0 33 16" fill="none" xmlns="http://www.w3.org/2000/svg">
<path d="M32.215 13.685L28.5128 7.43278L32.1772 1.43556C32.2642 1.29264 32.3117 1.12918 32.3148 0.961895C32.3179 0.79461 32.2765 0.629505 32.1948 0.483473C32.1132 0.337441 31.9942 0.215725 31.85 0.130776C31.7059 0.0458274 31.5418 0.000696193 31.3744 0H1.88889C1.38792 0 0.907478 0.199008 0.553243 0.553243C0.199007 0.907478 0 1.38792 0 1.88889L0 13.2222C0 13.7232 0.199007 14.2036 0.553243 14.5579C0.907478 14.9121 1.38792 15.1111 1.88889 15.1111H31.4028C31.5695 15.1111 31.7332 15.0669 31.8773 14.9831C32.0214 14.8994 32.1408 14.7789 32.2233 14.6341C32.3058 14.4892 32.3485 14.3251 32.347 14.1584C32.3456 13.9917 32.3 13.8284 32.215 13.685ZM9.92611 10.5589H8.86833L5.78944 6.46V10.5683H4.72222V4.72222H5.78944L8.87778 8.83056V4.72222H9.93556L9.92611 10.5589ZM15.9044 5.66667H12.5706V7.07389H15.5928V8.01833H12.5706V9.53889H15.9044V10.4833H11.5033V4.72222H15.895L15.9044 5.66667ZM23.7339 10.54H22.6667L21.2028 6.205L19.7389 10.5589H18.6811L16.7922 4.72222H17.9444L19.1911 8.90611L20.6267 4.72222H21.7789L23.1578 8.90611L24.4139 4.72222H25.5756L23.7339 10.54Z" fill="white"/>
</svg>
