<svg width="30" height="30" viewBox="0 0 30 30" fill="none" xmlns="http://www.w3.org/2000/svg">
<path d="M26.6903 0.00012207H3.55162C1.73358 0.00012207 0.246094 1.48761 0.246094 3.30565V26.4444C0.246094 28.2624 1.73358 29.7499 3.55162 29.7499H26.6903C28.5084 29.7499 29.9959 28.2624 29.9959 26.4444V3.30565C29.9959 1.48761 28.5084 0.00012207 26.6903 0.00012207ZM15.121 4.95842C18.3108 4.95842 20.9057 7.55326 20.9057 10.7431C20.9057 13.9329 18.3108 16.5278 15.121 16.5278C11.9311 16.5278 9.3363 13.9329 9.3363 10.7431C9.3363 7.55326 11.9311 4.95842 15.121 4.95842ZM26.6903 26.4444H3.55162V26.0642C3.55162 25.0395 4.0144 24.0809 4.80772 23.4529C7.63395 21.1886 11.2205 19.8333 15.121 19.8333C19.0215 19.8333 22.608 21.1886 25.4342 23.4529C26.2276 24.0809 26.6903 25.056 26.6903 26.0642V26.4444Z" fill="white"/>
</svg>
