<?xml version="1.0" encoding="UTF-8"?>
<!DOCTYPE svg PUBLIC "-//W3C//DTD SVG 1.1//EN" "http://www.w3.org/Graphics/SVG/1.1/DTD/svg11.dtd">
<svg xmlns="http://www.w3.org/2000/svg" version="1.1" width="96px" height="84px" style="shape-rendering:geometricPrecision; text-rendering:geometricPrecision; image-rendering:optimizeQuality; fill-rule:evenodd; clip-rule:evenodd" xmlns:xlink="http://www.w3.org/1999/xlink">
<g><path style="opacity:0.855" fill="#fefffe" d="M 39.5,-0.5 C 42.1667,-0.5 44.8333,-0.5 47.5,-0.5C 50.1902,2.3702 52.5235,5.53687 54.5,9C 40.0622,13.9422 25.3955,17.9422 10.5,21C 20.3497,13.97 30.0163,6.80336 39.5,-0.5 Z"/></g>
<g><path style="opacity:0.864" fill="#fefffe" d="M 95.5,52.5 C 95.5,55.1667 95.5,57.8333 95.5,60.5C 93.9183,62.9697 91.585,64.4697 88.5,65C 66.2937,70.8814 44.2937,77.048 22.5,83.5C 19.5,83.5 16.5,83.5 13.5,83.5C 7.28763,75.8364 7.12097,68.1697 13,60.5C 14.0274,56.8201 13.1941,53.6534 10.5,51C 7.34396,50.0628 4.51063,48.5628 2,46.5C 1.30239,43.9963 0.46906,41.663 -0.5,39.5C -0.5,36.8333 -0.5,34.1667 -0.5,31.5C 0.639972,30.1986 1.97331,29.0319 3.5,28C 26.8333,21.6667 50.1667,15.3333 73.5,9C 77.5052,7.90191 81.0052,8.73524 84,11.5C 85.0948,15.3849 86.2614,19.2183 87.5,23C 86.0914,26.0818 84.2581,28.9151 82,31.5C 80.7984,35.7929 81.9651,39.2929 85.5,42C 91.7962,42.7938 95.1295,46.2938 95.5,52.5 Z M 75.5,15.5 C 76.675,15.281 77.675,15.6143 78.5,16.5C 79.0736,18.0589 79.7402,19.5589 80.5,21C 72.3007,30.2868 72.6341,39.2868 81.5,48C 83.7463,49.0395 85.913,50.2062 88,51.5C 88.2734,53.1012 88.7734,54.6012 89.5,56C 86.4479,57.9349 83.1145,59.2682 79.5,60C 58.537,65.8238 37.537,71.1571 16.5,76C 15.8333,74.3333 15.1667,72.6667 14.5,71C 21.3346,63.8211 22.168,55.9878 17,47.5C 14.1914,44.428 10.8581,42.0947 7,40.5C 6.21155,38.8353 5.87821,37.1686 6,35.5C 29.2334,28.7366 52.4001,22.0699 75.5,15.5 Z"/></g>
<g><path style="opacity:0.83" fill="#fefffe" d="M 59.5,21.5 C 66.7509,20.8991 69.2509,23.8991 67,30.5C 62.3196,34.4341 58.8196,33.4341 56.5,27.5C 56.9837,25.1992 57.9837,23.1992 59.5,21.5 Z"/></g>
<g><path style="opacity:0.841" fill="#fefffe" d="M 63.5,35.5 C 71.619,35.4687 73.619,38.9687 69.5,46C 62.8374,47.6664 60.0041,45.1664 61,38.5C 61.6979,37.3094 62.5313,36.3094 63.5,35.5 Z"/></g>
<g><path style="opacity:0.851" fill="#fefffe" d="M 66.5,49.5 C 71.7064,48.1199 74.7064,49.9532 75.5,55C 73.6611,60.7761 70.1611,61.9428 65,58.5C 64.068,55.1769 64.568,52.1769 66.5,49.5 Z"/></g>
</svg>
