<svg width="20" height="21" viewBox="0 0 20 21" fill="none" xmlns="http://www.w3.org/2000/svg">
<path fill-rule="evenodd" clip-rule="evenodd" d="M6.6403 3.52883C4.69177 1.34437 2.27727 1.16665 1.137 1.54674C0.963371 1.60462 0.861594 1.78437 0.901295 1.96303L2.07454 7.2426H1.2499C0.658162 7.2426 0.178467 7.7223 0.178467 8.31403C0.178467 8.90577 0.658162 9.38546 1.2499 9.38546H1.91595L0.901442 13.9507C0.86174 14.1294 0.963517 14.3092 1.13714 14.367C2.19672 14.7202 4.35384 14.5913 6.21581 12.8234C6.24878 12.7921 6.27451 12.756 6.29287 12.7171C7.73615 13.8689 9.60061 14.8393 11.9248 15.0975C14.5863 15.3934 16.5748 14.655 17.8953 13.3343C19.2078 12.0218 19.8213 10.1735 19.8213 8.3139C19.8215 6.45426 19.2079 4.60606 17.8953 3.29356C16.5748 1.97287 14.5863 1.23464 11.9248 1.53036C9.80955 1.76539 8.07511 2.59034 6.69238 3.60506C6.67868 3.57804 6.66132 3.5524 6.6403 3.52883ZM8.3545 16.0061C7.87511 15.8071 7.32038 16.1259 7.35952 16.6435C7.39291 17.0851 7.46348 17.5178 7.57052 17.9787C7.68728 18.4812 7.99368 18.9178 8.42039 19.2007C8.87259 19.5005 9.38465 19.7891 10.0186 19.9127C10.661 20.0378 11.3631 19.9817 12.19 19.7061C13.2281 19.3599 13.7599 18.5075 14.0087 17.6701C14.1245 17.2805 13.7826 16.9315 13.3764 16.9432C12.8463 16.9587 12.2963 16.9357 11.7276 16.8725C10.4893 16.7349 9.36658 16.4262 8.3545 16.0061Z" fill="white"/>
</svg>
