<svg width="20" height="20" viewBox="0 0 20 20" fill="none" xmlns="http://www.w3.org/2000/svg">
<path fill-rule="evenodd" clip-rule="evenodd" d="M0.3599 7.10405C0.3599 6.73788 0.564756 6.45289 0.707756 6.28722C0.870899 6.09819 1.08533 5.91592 1.31947 5.74355C1.79147 5.39603 2.44247 5.01683 3.19761 4.63022C4.71433 3.85359 6.74129 3.00152 8.82134 2.26601C10.8995 1.53118 13.0599 0.902278 14.8422 0.58324C15.7305 0.424224 16.554 0.336726 17.2394 0.3617C17.8805 0.385064 18.5852 0.510764 19.0383 0.963548C19.4925 1.41736 19.6155 2.12369 19.6363 2.76412C19.6586 3.44931 19.5675 4.27272 19.4045 5.16083C19.0774 6.94276 18.4384 9.10335 17.6939 11.1817C16.9488 13.262 16.0876 15.2893 15.3049 16.8061C14.9153 17.5613 14.534 18.2121 14.1856 18.6837C14.0128 18.9177 13.8304 19.1318 13.6419 19.2947C13.4774 19.4367 13.1924 19.6426 12.826 19.6426C12.3505 19.6426 11.9635 19.4133 11.6744 19.1416C11.3877 18.8721 11.1477 18.5167 10.9439 18.1408C10.5353 17.3873 10.1934 16.4017 9.90903 15.4228C9.62218 14.4357 9.38204 13.4126 9.18824 12.5684L9.12659 12.2994L9.12656 12.2992C9.01526 11.8133 8.92513 11.4198 8.85264 11.1393C8.57544 11.0658 8.1878 10.9742 7.70953 10.8612H7.70951L7.42533 10.7941C6.58184 10.5943 5.55961 10.3468 4.5729 10.0524C3.59476 9.76058 2.6099 9.41088 1.8569 8.99595C1.48133 8.78896 1.1269 8.54616 0.858328 8.25746C0.587757 7.96665 0.3599 7.57883 0.3599 7.10405Z" fill="white"/>
</svg>
