<svg width="13" height="10" viewBox="0 0 13 10" fill="none" xmlns="http://www.w3.org/2000/svg">
<path d="M0.833252 4.46877C0.692356 4.46877 0.55723 4.52474 0.457601 4.62437C0.357973 4.724 0.302002 4.85912 0.302002 5.00002C0.302002 5.14092 0.357973 5.27604 0.457601 5.37567C0.55723 5.4753 0.692356 5.53127 0.833252 5.53127H7.38533V9.25002C7.38543 9.35502 7.41664 9.45765 7.47502 9.54492C7.5334 9.6322 7.61633 9.70022 7.71335 9.74039C7.81036 9.78056 7.91711 9.79108 8.0201 9.77062C8.12309 9.75016 8.21771 9.69964 8.292 9.62544L12.542 5.37544C12.6415 5.27583 12.6974 5.1408 12.6974 5.00002C12.6974 4.85924 12.6415 4.72421 12.542 4.6246L8.292 0.374604C8.21771 0.300402 8.12309 0.249881 8.0201 0.229421C7.91711 0.208961 7.81036 0.219481 7.71335 0.259651C7.61633 0.299822 7.5334 0.367842 7.47502 0.455119C7.41664 0.542397 7.38543 0.645018 7.38533 0.750021V4.46877H0.833252Z" fill="white"/>
</svg>
