<svg width="19" height="20" viewBox="0 0 19 20" fill="none" xmlns="http://www.w3.org/2000/svg">
<path fill-rule="evenodd" clip-rule="evenodd" d="M5.08412 2.18632C6.2553 1.01514 7.84376 0.357178 9.50007 0.357178C11.1564 0.357178 12.7448 1.01514 13.916 2.18632C15.0872 3.35751 15.7451 4.94598 15.7451 6.60229C15.7451 7.37843 15.8718 8.12018 16.0741 8.90732C16.1258 9.06721 16.1821 9.21743 16.2421 9.35856C16.3231 9.54898 16.4868 9.71341 16.8014 9.91466C16.9242 9.99328 17.05 10.0655 17.1928 10.1476L17.3264 10.2246C17.5165 10.3347 17.7305 10.4625 17.935 10.6138C18.6738 11.1609 18.9455 12.0039 18.9088 12.7639C18.8731 13.5035 18.5415 14.2744 17.9228 14.7396C17.9144 14.7463 17.9048 14.7536 17.8942 14.7615C17.8691 14.7803 17.8377 14.8023 17.7991 14.827C17.7221 14.8766 17.6167 14.937 17.4761 15.0043C17.1954 15.1387 16.7721 15.3015 16.1495 15.4589C14.9068 15.7729 12.8485 16.0715 9.50007 16.0715C6.15162 16.0715 4.09326 15.7729 2.85062 15.4589C2.22806 15.3015 1.8048 15.1387 1.52402 15.0043C1.38343 14.937 1.27806 14.8766 1.20103 14.827C1.1625 14.8023 1.13108 14.7803 1.10588 14.7615C1.09529 14.7536 1.08579 14.7463 1.07735 14.7396C0.458617 14.2744 0.127093 13.5035 0.0913787 12.7639C0.0546773 12.0039 0.326284 11.1609 1.06525 10.6138L1.49025 11.1879L1.06525 10.6138C1.26962 10.4625 1.48358 10.3347 1.6737 10.2246L1.80732 10.1476L1.80735 10.1476C1.95022 10.0655 2.07596 9.99329 2.1988 9.91469C2.5133 9.71345 2.67699 9.54903 2.75795 9.35862C3.04695 8.67898 3.25496 7.78121 3.25496 6.60229C3.25496 4.94598 3.91293 3.35751 5.08412 2.18632ZM7.84049 17.1209C7.56269 17.0263 7.25537 17.1113 7.06562 17.3352C6.87587 17.559 6.8423 17.8762 6.98099 18.1347C7.46163 19.0309 8.40885 19.6429 9.50012 19.6429C10.5914 19.6429 11.5386 19.0309 12.0192 18.1347C12.1579 17.8762 12.1244 17.559 11.9346 17.3352C11.7449 17.1113 11.4375 17.0263 11.1597 17.1209C10.7979 17.2439 10.2634 17.338 9.50012 17.338C8.73682 17.338 8.2023 17.2439 7.84049 17.1209Z" fill="white"/>
</svg>
