<svg xmlns="http://www.w3.org/2000/svg" width="21" height="21" viewBox="0 0 21 21" fill="none">
  <path d="M1.75 7.875C1.75 6.22475 1.75 5.4005 2.26275 4.88775C2.7755 4.375 3.59975 4.375 5.25 4.375H15.75C17.4003 4.375 18.2245 4.375 18.7372 4.88775C19.25 5.4005 19.25 6.22475 19.25 7.875C19.25 8.28712 19.25 8.49363 19.1222 8.62225C18.9936 8.75 18.7862 8.75 18.375 8.75H2.625C2.21288 8.75 2.00637 8.75 1.87775 8.62225C1.75 8.49363 1.75 8.28625 1.75 7.875Z" fill="white"/>
  <path fill-rule="evenodd" clip-rule="evenodd" d="M1.75 15.75C1.75 17.4002 1.75 18.2245 2.26275 18.7372C2.7755 19.25 3.59975 19.25 5.25 19.25H15.75C17.4003 19.25 18.2245 19.25 18.7372 18.7372C19.25 18.2245 19.25 17.4002 19.25 15.75V11.375C19.25 10.9629 19.25 10.7564 19.1222 10.6277C18.9936 10.5 18.7862 10.5 18.375 10.5H2.625C2.21288 10.5 2.00637 10.5 1.87775 10.6277C1.75 10.7564 1.75 10.9638 1.75 11.375V15.75ZM6.125 13.125C6.125 12.7129 6.125 12.5064 6.25275 12.3777C6.38137 12.25 6.58875 12.25 7 12.25H8.75C9.16213 12.25 9.36863 12.25 9.49725 12.3777C9.625 12.5064 9.625 12.7129 9.625 13.125C9.625 13.5371 9.625 13.7436 9.49725 13.8723C9.36863 14 9.16125 14 8.75 14H7C6.58787 14 6.38137 14 6.25275 13.8723C6.125 13.7436 6.125 13.5363 6.125 13.125ZM6.25275 15.8777C6.125 16.0064 6.125 16.2137 6.125 16.625C6.125 17.0363 6.125 17.2436 6.25275 17.3723C6.38137 17.5 6.58875 17.5 7 17.5H8.75C9.16213 17.5 9.36863 17.5 9.49725 17.3723C9.625 17.2436 9.625 17.0363 9.625 16.625C9.625 16.2137 9.625 16.0064 9.49725 15.8777C9.36863 15.75 9.16125 15.75 8.75 15.75H7C6.58787 15.75 6.38137 15.75 6.25275 15.8777ZM11.375 13.125C11.375 12.7129 11.375 12.5064 11.5028 12.3777C11.6314 12.25 11.8387 12.25 12.25 12.25H14C14.4121 12.25 14.6186 12.25 14.7472 12.3777C14.875 12.5064 14.875 12.7129 14.875 13.125C14.875 13.5371 14.875 13.7436 14.7472 13.8723C14.6186 14 14.4113 14 14 14H12.25C11.8379 14 11.6314 14 11.5028 13.8723C11.375 13.7436 11.375 13.5363 11.375 13.125ZM11.5028 15.8777C11.375 16.0064 11.375 16.2137 11.375 16.625C11.375 17.0363 11.375 17.2436 11.5028 17.3723C11.6314 17.5 11.8379 17.5 12.25 17.5H14C14.4121 17.5 14.6186 17.5 14.7472 17.3723C14.875 17.2436 14.875 17.0363 14.875 16.625C14.875 16.2137 14.875 16.0064 14.7472 15.8777C14.6186 15.75 14.4113 15.75 14 15.75H12.25C11.8379 15.75 11.6314 15.75 11.5028 15.8777Z" fill="white"/>
  <path d="M6.125 2.625V5.25M14.875 2.625V5.25" stroke="white" stroke-width="2" stroke-linecap="round"/>
</svg>