<svg width="19" height="18" viewBox="0 0 19 18" fill="none" xmlns="http://www.w3.org/2000/svg">
<path d="M5.27227 1.66343L6.34897 1.33881C6.70432 1.23184 7.08644 1.25779 7.42406 1.41182C7.76168 1.56585 8.03174 1.83744 8.18386 2.17593L8.93872 3.85463C9.06974 4.14586 9.10625 4.4708 9.04315 4.78385C8.98004 5.09689 8.82048 5.38231 8.58686 5.60003L7.4379 6.67062C7.28393 6.81681 7.40066 7.38657 7.96319 8.36155C8.52627 9.33708 8.96151 9.72285 9.16218 9.66282L10.6674 9.20256C10.9726 9.10924 11.2992 9.11373 11.6017 9.2154C11.9041 9.31708 12.1672 9.51085 12.3539 9.76954L13.4267 11.2565C13.6434 11.5567 13.7438 11.9254 13.7091 12.2941C13.6744 12.6627 13.5072 13.0063 13.2383 13.2609L12.409 14.0463C12.1412 14.2999 11.811 14.4779 11.4521 14.5621C11.0931 14.6464 10.7182 14.634 10.3656 14.526C8.628 13.9941 7.01878 12.4154 5.51629 9.81234C4.01046 7.20536 3.44182 5.00637 3.83815 3.20983C3.91808 2.84783 4.09311 2.51369 4.3452 2.24187C4.59729 1.97005 4.9173 1.77037 5.27227 1.66343Z" fill="white"/>
</svg>
