<svg width="18" height="18" viewBox="0 0 18 18" fill="none" xmlns="http://www.w3.org/2000/svg">
<path fill-rule="evenodd" clip-rule="evenodd" d="M3.37484 7.37916V5.66666C3.37484 4.17481 3.96747 2.74407 5.02236 1.68918C6.07725 0.634289 7.50799 0.0416565 8.99984 0.0416565C10.4917 0.0416565 11.9224 0.634289 12.9773 1.68918C14.0322 2.74407 14.6248 4.17481 14.6248 5.66666V7.37916C15.554 7.44832 16.1582 7.62332 16.6007 8.06582C17.3332 8.79749 17.3332 9.97666 17.3332 12.3333C17.3332 14.69 17.3332 15.8692 16.6007 16.6008C15.869 17.3333 14.6898 17.3333 12.3332 17.3333H5.6665C3.30984 17.3333 2.13067 17.3333 1.399 16.6008C0.666504 15.8692 0.666504 14.69 0.666504 12.3333C0.666504 9.97666 0.666504 8.79749 1.399 8.06582C1.84067 7.62332 2.44567 7.44832 3.37484 7.37916ZM4.62484 5.66666C4.62484 4.50633 5.08577 3.39354 5.90624 2.57306C6.72672 1.75259 7.83951 1.29166 8.99984 1.29166C10.1602 1.29166 11.273 1.75259 12.0934 2.57306C12.9139 3.39354 13.3748 4.50633 13.3748 5.66666V7.33666C13.0557 7.33332 12.709 7.33332 12.3332 7.33332H5.6665C5.28984 7.33332 4.944 7.33332 4.62484 7.33666V5.66666ZM5.6665 13.1667C5.88752 13.1667 6.09948 13.0789 6.25576 12.9226C6.41204 12.7663 6.49984 12.5543 6.49984 12.3333C6.49984 12.1123 6.41204 11.9003 6.25576 11.7441C6.09948 11.5878 5.88752 11.5 5.6665 11.5C5.44549 11.5 5.23353 11.5878 5.07725 11.7441C4.92097 11.9003 4.83317 12.1123 4.83317 12.3333C4.83317 12.5543 4.92097 12.7663 5.07725 12.9226C5.23353 13.0789 5.44549 13.1667 5.6665 13.1667ZM8.99984 13.1667C9.22085 13.1667 9.43281 13.0789 9.58909 12.9226C9.74537 12.7663 9.83317 12.5543 9.83317 12.3333C9.83317 12.1123 9.74537 11.9003 9.58909 11.7441C9.43281 11.5878 9.22085 11.5 8.99984 11.5C8.77882 11.5 8.56686 11.5878 8.41058 11.7441C8.2543 11.9003 8.1665 12.1123 8.1665 12.3333C8.1665 12.5543 8.2543 12.7663 8.41058 12.9226C8.56686 13.0789 8.77882 13.1667 8.99984 13.1667ZM13.1665 12.3333C13.1665 12.5543 13.0787 12.7663 12.9224 12.9226C12.7661 13.0789 12.5542 13.1667 12.3332 13.1667C12.1122 13.1667 11.9002 13.0789 11.7439 12.9226C11.5876 12.7663 11.4998 12.5543 11.4998 12.3333C11.4998 12.1123 11.5876 11.9003 11.7439 11.7441C11.9002 11.5878 12.1122 11.5 12.3332 11.5C12.5542 11.5 12.7661 11.5878 12.9224 11.7441C13.0787 11.9003 13.1665 12.1123 13.1665 12.3333Z" fill="white"/>
</svg>
