<svg width="18" height="18" viewBox="0 0 18 18" fill="none" xmlns="http://www.w3.org/2000/svg">
<path fill-rule="evenodd" clip-rule="evenodd" d="M7.1375 1.49835C7.37198 1.23647 7.65906 1.02699 7.97999 0.883566C8.30091 0.740145 8.64848 0.666016 9 0.666016C9.35152 0.666016 9.69908 0.740145 10.02 0.883566C10.3409 1.02699 10.628 1.23647 10.8625 1.49835L11.4458 2.15002C11.5292 2.24328 11.6325 2.31657 11.748 2.36446C11.8636 2.41236 11.9884 2.43362 12.1133 2.42669L12.9883 2.37835C13.3392 2.35908 13.6902 2.414 14.0184 2.53952C14.3466 2.66504 14.6447 2.85835 14.8932 3.10683C15.1417 3.3553 15.335 3.65338 15.4605 3.9816C15.586 4.30982 15.6409 4.66081 15.6217 5.01169L15.5733 5.88669C15.5665 6.01144 15.5879 6.13613 15.6357 6.25153C15.6836 6.36693 15.7569 6.47008 15.85 6.55335L16.5025 7.13669C16.7645 7.37118 16.9741 7.6583 17.1176 7.97931C17.2611 8.30031 17.3353 8.64798 17.3353 8.9996C17.3353 9.35123 17.2611 9.69889 17.1176 10.0199C16.9741 10.3409 16.7645 10.628 16.5025 10.8625L15.85 11.4459C15.7567 11.5292 15.6835 11.6325 15.6356 11.7481C15.5877 11.8636 15.5664 11.9885 15.5733 12.1134L15.6217 12.9884C15.6409 13.3392 15.586 13.6902 15.4605 14.0184C15.335 14.3467 15.1417 14.6447 14.8932 14.8932C14.6447 15.1417 14.3466 15.335 14.0184 15.4605C13.6902 15.586 13.3392 15.641 12.9883 15.6217L12.1133 15.5734C11.9886 15.5665 11.8639 15.5879 11.7485 15.6358C11.6331 15.6837 11.5299 15.7569 11.4467 15.85L10.8633 16.5025C10.6288 16.7645 10.3417 16.9741 10.0207 17.1176C9.69971 17.2612 9.35204 17.3353 9.00041 17.3353C8.64879 17.3353 8.30113 17.2612 7.98012 17.1176C7.65911 16.9741 7.37199 16.7645 7.1375 16.5025L6.55416 15.85C6.4708 15.7568 6.36751 15.6835 6.25196 15.6356C6.13641 15.5877 6.01156 15.5664 5.88666 15.5734L5.01166 15.6217C4.66079 15.641 4.3098 15.586 3.98157 15.4605C3.65335 15.335 3.35528 15.1417 3.1068 14.8932C2.85832 14.6447 2.66502 14.3467 2.5395 14.0184C2.41398 13.6902 2.35906 13.3392 2.37833 12.9884L2.42666 12.1134C2.43348 11.9886 2.41215 11.8639 2.36426 11.7485C2.31637 11.6331 2.24314 11.53 2.15 11.4467L1.49833 10.8634C1.23631 10.6289 1.02671 10.3417 0.883205 10.0207C0.739701 9.69973 0.665527 9.35206 0.665527 9.00044C0.665527 8.64882 0.739701 8.30115 0.883205 7.98014C1.02671 7.65913 1.23631 7.37201 1.49833 7.13752L2.15 6.55419C2.24325 6.47082 2.31655 6.36754 2.36444 6.25198C2.41234 6.13643 2.4336 6.01158 2.42666 5.88669L2.37833 5.01169C2.35906 4.66081 2.41398 4.30982 2.5395 3.9816C2.66502 3.65338 2.85832 3.3553 3.1068 3.10683C3.35528 2.85835 3.65335 2.66504 3.98157 2.53952C4.3098 2.414 4.66079 2.35908 5.01166 2.37835L5.88666 2.42669C6.01142 2.4335 6.13611 2.41217 6.25151 2.36428C6.3669 2.31639 6.47006 2.24316 6.55333 2.15002L7.1375 1.49835ZM12.0892 5.91085C12.2454 6.06713 12.3332 6.27905 12.3332 6.50002C12.3332 6.72099 12.2454 6.93291 12.0892 7.08919L7.08916 12.0892C6.932 12.241 6.72149 12.325 6.503 12.3231C6.2845 12.3212 6.07549 12.2335 5.92098 12.079C5.76648 11.9245 5.67884 11.7155 5.67694 11.497C5.67504 11.2785 5.75903 11.068 5.91083 10.9109L10.9108 5.91085C11.0671 5.75463 11.279 5.66687 11.5 5.66687C11.721 5.66687 11.9329 5.75463 12.0892 5.91085ZM6.91667 5.66669C6.58514 5.66669 6.2672 5.79838 6.03278 6.0328C5.79836 6.26722 5.66667 6.58517 5.66667 6.91669V6.92502C5.66667 7.25654 5.79836 7.57448 6.03278 7.80891C6.2672 8.04333 6.58514 8.17502 6.91667 8.17502H6.925C7.25652 8.17502 7.57446 8.04333 7.80888 7.80891C8.0433 7.57448 8.175 7.25654 8.175 6.92502V6.91669C8.175 6.58517 8.0433 6.26722 7.80888 6.0328C7.57446 5.79838 7.25652 5.66669 6.925 5.66669H6.91667ZM11.0833 9.83335C10.7518 9.83335 10.4339 9.96505 10.1994 10.1995C9.96503 10.4339 9.83333 10.7518 9.83333 11.0834V11.0917C9.83333 11.4232 9.96503 11.7412 10.1994 11.9756C10.4339 12.21 10.7518 12.3417 11.0833 12.3417H11.0917C11.4232 12.3417 11.7411 12.21 11.9755 11.9756C12.21 11.7412 12.3417 11.4232 12.3417 11.0917V11.0834C12.3417 10.7518 12.21 10.4339 11.9755 10.1995C11.7411 9.96505 11.4232 9.83335 11.0917 9.83335H11.0833Z" fill="white"/>
</svg>
