<svg xmlns="http://www.w3.org/2000/svg" width="12" height="12" viewBox="0 0 12 12" fill="none">
  <path d="M2.25478 10.1013C1.93753 10.1013 1.63328 9.97523 1.40895 9.7509C1.18462 9.52658 1.05859 9.22232 1.05859 8.90508V7.19624C1.05859 7.06028 1.1126 6.92989 1.20875 6.83375C1.30489 6.73761 1.43528 6.68359 1.57124 6.68359C1.70721 6.68359 1.8376 6.73761 1.93374 6.83375C2.02988 6.92989 2.08389 7.06028 2.08389 7.19624V8.90508C2.08389 8.9994 2.16045 9.07596 2.25478 9.07596H9.43187C9.47719 9.07596 9.52066 9.05795 9.5527 9.02591C9.58475 8.99386 9.60275 8.9504 9.60275 8.90508V7.19624C9.60275 7.06028 9.65676 6.92989 9.7529 6.83375C9.84905 6.73761 9.97944 6.68359 10.1154 6.68359C10.2514 6.68359 10.3818 6.73761 10.4779 6.83375C10.574 6.92989 10.6281 7.06028 10.6281 7.19624V8.90508C10.6281 9.22232 10.502 9.52658 10.2777 9.7509C10.0534 9.97523 9.74912 10.1013 9.43187 10.1013H2.25478Z" fill="#8158F4"/>
  <path d="M5.33054 5.78799V1.89937C5.33054 1.76341 5.38455 1.63301 5.48069 1.53687C5.57683 1.44073 5.70722 1.38672 5.84319 1.38672C5.97915 1.38672 6.10954 1.44073 6.20568 1.53687C6.30182 1.63301 6.35584 1.76341 6.35584 1.89937V5.78799L7.7024 4.44211C7.74997 4.39454 7.80645 4.3568 7.86861 4.33105C7.93077 4.3053 7.99739 4.29205 8.06467 4.29205C8.13195 4.29205 8.19857 4.3053 8.26073 4.33105C8.32289 4.3568 8.37937 4.39454 8.42694 4.44211C8.47451 4.48968 8.51225 4.54616 8.538 4.60832C8.56375 4.67048 8.577 4.7371 8.577 4.80438C8.577 4.87166 8.56375 4.93828 8.538 5.00044C8.51225 5.0626 8.47451 5.11908 8.42694 5.16666L6.20546 7.38814C6.15791 7.43575 6.10144 7.47353 6.03928 7.49931C5.97711 7.52508 5.91048 7.53835 5.84319 7.53835C5.77589 7.53835 5.70926 7.52508 5.6471 7.49931C5.58494 7.47353 5.52846 7.43575 5.48091 7.38814L3.25943 5.16666C3.21186 5.11908 3.17412 5.0626 3.14837 5.00044C3.12263 4.93828 3.10938 4.87166 3.10938 4.80438C3.10937 4.7371 3.12263 4.67048 3.14837 4.60832C3.17412 4.54616 3.21186 4.48968 3.25943 4.44211C3.30701 4.39454 3.36349 4.3568 3.42565 4.33105C3.4878 4.3053 3.55443 4.29205 3.62171 4.29205C3.68899 4.29205 3.75561 4.3053 3.81777 4.33105C3.87992 4.3568 3.9364 4.39454 3.98398 4.44211L5.33054 5.78799Z" fill="#8158F4"/>
</svg>