<svg width="19" height="19" viewBox="0 0 19 19" fill="none" xmlns="http://www.w3.org/2000/svg">
<path d="M15.8333 14.7778C15.8333 12.6667 11.6111 11.5056 9.5 11.5056C7.38889 11.5056 3.16667 12.6667 3.16667 14.7778V15.8333H15.8333M6.33333 6.33333C6.33333 7.17319 6.66696 7.97864 7.26083 8.5725C7.85469 9.16637 8.66015 9.5 9.5 9.5C10.3399 9.5 11.1453 9.16637 11.7392 8.5725C12.333 7.97864 12.6667 7.17319 12.6667 6.33333C12.6667 5.49348 12.333 4.68803 11.7392 4.09416C11.1453 3.5003 10.3399 3.16667 9.5 3.16667C8.66015 3.16667 7.85469 3.5003 7.26083 4.09416C6.66696 4.68803 6.33333 5.49348 6.33333 6.33333ZM19 2.11111V16.8889C19 17.4488 18.7776 17.9858 18.3817 18.3817C17.9858 18.7776 17.4488 19 16.8889 19H2.11111C1.55121 19 1.01424 18.7776 0.61833 18.3817C0.22242 17.9858 0 17.4488 0 16.8889V2.11111C0 1.55121 0.22242 1.01424 0.61833 0.61833C1.01424 0.22242 1.55121 0 2.11111 0H16.8889C17.4488 0 17.9858 0.22242 18.3817 0.61833C18.7776 1.01424 19 1.55121 19 2.11111Z" fill="white"/>
</svg>
