<svg xmlns="http://www.w3.org/2000/svg" width="18" height="20" viewBox="0 0 18 20" fill="none">
  <path d="M11.1086 10V18.3109C11.1508 18.6273 11.0453 18.9648 10.8027 19.1863C10.7052 19.2841 10.5893 19.3617 10.4617 19.4146C10.3341 19.4675 10.1973 19.4948 10.0592 19.4948C9.92105 19.4948 9.78427 19.4675 9.65668 19.4146C9.52909 19.3617 9.41319 19.2841 9.31562 19.1863L7.1957 17.0664C7.08074 16.9539 6.99332 16.8164 6.94026 16.6645C6.88721 16.5127 6.86995 16.3506 6.88984 16.191V10H6.8582L0.7832 2.21641C0.611927 1.99654 0.534645 1.71781 0.568241 1.44114C0.601838 1.16446 0.74358 0.912334 0.962496 0.739844C1.16289 0.592188 1.38437 0.507812 1.6164 0.507812H16.382C16.6141 0.507812 16.8355 0.592188 17.0359 0.739844C17.2549 0.912334 17.3966 1.16446 17.4302 1.44114C17.4638 1.71781 17.3865 1.99654 17.2152 2.21641L11.1402 10H11.1086Z" fill="white"/>
</svg>