<svg width="14" height="18" viewBox="0 0 14 18" fill="none" xmlns="http://www.w3.org/2000/svg">
<path d="M2.60698 0.929621L3.99055 0.512478C4.44718 0.375026 4.93821 0.408376 5.37206 0.606307C5.8059 0.804239 6.15293 1.15323 6.34841 1.58819L7.31841 3.74534C7.48676 4.11957 7.53369 4.53713 7.45259 4.93939C7.3715 5.34165 7.16646 5.70842 6.86627 5.98819L5.38984 7.36391C5.19198 7.55176 5.34198 8.28391 6.06484 9.53676C6.78841 10.7903 7.34769 11.286 7.60555 11.2089L9.53984 10.6175C9.93192 10.4976 10.3517 10.5033 10.7403 10.634C11.129 10.7646 11.467 11.0136 11.707 11.346L13.0856 13.2568C13.364 13.6426 13.4929 14.1164 13.4484 14.5901C13.4039 15.0638 13.1889 15.5053 12.8434 15.8325L11.7777 16.8418C11.4337 17.1676 11.0094 17.3963 10.5481 17.5046C10.0868 17.6129 9.60505 17.5969 9.15198 17.4582C6.91912 16.7746 4.85126 14.7461 2.92055 11.4011C0.985551 8.05105 0.254837 5.22534 0.764123 2.91676C0.86684 2.45159 1.09176 2.02222 1.41569 1.67293C1.73962 1.32363 2.15085 1.06705 2.60698 0.929621Z" fill="white"/>
</svg>
