<svg width="20" height="20" viewBox="0 0 20 20" fill="none" xmlns="http://www.w3.org/2000/svg">
<path d="M14.166 2.74996C10.916 0.916626 6.91602 1.49996 4.24935 3.99996V2.49996C4.24935 1.99996 3.91602 1.66663 3.41602 1.66663C2.91602 1.66663 2.58268 1.99996 2.58268 2.49996V6.24996C2.58268 6.74996 2.91602 7.08329 3.41602 7.08329H7.16602C7.66602 7.08329 7.99935 6.74996 7.99935 6.24996C7.99935 5.74996 7.66602 5.41663 7.16602 5.41663H5.16602C6.41602 4.08329 8.16602 3.33329 9.99935 3.33329C13.666 3.33329 16.666 6.33329 16.666 9.99996C16.666 13.6666 13.666 16.6666 9.99935 16.6666C6.33268 16.6666 3.33268 13.6666 3.33268 9.99996C3.33268 9.49996 2.99935 9.16663 2.49935 9.16663C1.99935 9.16663 1.66602 9.49996 1.66602 9.99996C1.66602 14.5833 5.41602 18.3333 9.99935 18.3333C12.9993 18.3333 15.7493 16.75 17.2493 14.1666C19.4993 10.1666 18.166 5.08329 14.166 2.74996ZM9.99935 6.66663C9.49935 6.66663 9.16602 6.99996 9.16602 7.49996V9.99996C9.16602 10.5 9.49935 10.8333 9.99935 10.8333H11.666C12.166 10.8333 12.4993 10.5 12.4993 9.99996C12.4993 9.49996 12.166 9.16663 11.666 9.16663H10.8327V7.49996C10.8327 6.99996 10.4993 6.66663 9.99935 6.66663Z" fill="white"/>
</svg>
