<svg width="18" height="20" viewBox="0 0 18 20" fill="none" xmlns="http://www.w3.org/2000/svg">
<path d="M15.157 14.882L13.97 16.056C13.095 16.914 11.96 18.018 10.564 19.368C10.1444 19.7737 9.5836 20.0005 8.99997 20.0005C8.41634 20.0005 7.85555 19.7737 7.43597 19.368L3.94497 15.972C3.50497 15.541 3.13897 15.178 2.84297 14.882C1.62534 13.6643 0.79614 12.1128 0.460229 10.4239C0.124319 8.73488 0.296783 6.98422 0.955813 5.39326C1.61484 3.8023 2.73084 2.44249 4.16269 1.48578C5.59453 0.529073 7.27792 0.0184326 8.99997 0.0184326C10.722 0.0184326 12.4054 0.529073 13.8373 1.48578C15.2691 2.44249 16.3851 3.8023 17.0441 5.39326C17.7032 6.98422 17.8756 8.73488 17.5397 10.4239C17.2038 12.1128 16.3746 13.6643 15.157 14.882ZM11.5 8.99999C11.5 8.33695 11.2366 7.70106 10.7677 7.23222C10.2989 6.76338 9.66301 6.49999 8.99997 6.49999C8.33693 6.49999 7.70105 6.76338 7.23221 7.23222C6.76336 7.70106 6.49997 8.33695 6.49997 8.99999C6.49997 9.66303 6.76336 10.2989 7.23221 10.7678C7.70105 11.2366 8.33693 11.5 8.99997 11.5C9.66301 11.5 10.2989 11.2366 10.7677 10.7678C11.2366 10.2989 11.5 9.66303 11.5 8.99999Z" fill="white"/>
</svg>
