<svg width="51" height="51" viewBox="0 0 51 51" fill="none" xmlns="http://www.w3.org/2000/svg">
<circle cx="25.5003" cy="25.5003" r="25.2581" fill="#FD6464"/>
<path fill-rule="evenodd" clip-rule="evenodd" d="M34.9552 18.0529C35.0752 17.933 35.1705 17.7907 35.2355 17.6341C35.3005 17.4774 35.334 17.3095 35.3341 17.1399C35.3342 16.9702 35.3009 16.8023 35.2361 16.6455C35.1713 16.4888 35.0762 16.3463 34.9563 16.2263C34.8365 16.1063 34.6942 16.0111 34.5375 15.9461C34.3808 15.8811 34.2129 15.8476 34.0433 15.8475C33.8737 15.8474 33.7057 15.8807 33.549 15.9455C33.3922 16.0103 33.2498 16.1053 33.1298 16.2252L25.3407 24.0143L17.5539 16.2252C17.3115 15.9828 16.9828 15.8467 16.64 15.8467C16.2973 15.8467 15.9686 15.9828 15.7262 16.2252C15.4838 16.4676 15.3477 16.7963 15.3477 17.1391C15.3477 17.4818 15.4838 17.8105 15.7262 18.0529L23.5152 25.8397L15.7262 33.6265C15.6062 33.7466 15.511 33.889 15.446 34.0458C15.3811 34.2026 15.3477 34.3707 15.3477 34.5404C15.3477 34.7101 15.3811 34.8782 15.446 35.035C15.511 35.1918 15.6062 35.3342 15.7262 35.4542C15.9686 35.6966 16.2973 35.8328 16.64 35.8328C16.8098 35.8328 16.9778 35.7993 17.1346 35.7344C17.2914 35.6694 17.4339 35.5743 17.5539 35.4542L25.3407 27.6652L33.1298 35.4542C33.3721 35.6963 33.7007 35.8322 34.0433 35.832C34.3858 35.8318 34.7143 35.6955 34.9563 35.4531C35.1984 35.2108 35.3343 34.8822 35.3341 34.5396C35.3339 34.1971 35.1976 33.8686 34.9552 33.6265L27.1662 25.8397L34.9552 18.0529Z" fill="white"/>
</svg>
