<svg width="20" height="20" viewBox="0 0 20 20" fill="none" xmlns="http://www.w3.org/2000/svg">
<path d="M3.49167 3.72504C2.89167 3.99171 2.5 4.59171 2.5 5.25004V9.16671C2.5 13.7917 5.7 18.1167 10 19.1667C14.3 18.1167 17.5 13.7917 17.5 9.16671V5.25004C17.5 4.59171 17.1083 3.99171 16.5083 3.72504L10.675 1.13337C10.2417 0.941707 9.75 0.941707 9.325 1.13337L3.49167 3.72504ZM10 5.83337C10.4583 5.83337 10.8333 6.20837 10.8333 6.66671C10.8333 7.12504 10.4583 7.50004 10 7.50004C9.54167 7.50004 9.16667 7.12504 9.16667 6.66671C9.16667 6.20837 9.54167 5.83337 10 5.83337ZM10 9.16671C10.4583 9.16671 10.8333 9.54171 10.8333 10V13.3334C10.8333 13.7917 10.4583 14.1667 10 14.1667C9.54167 14.1667 9.16667 13.7917 9.16667 13.3334V10C9.16667 9.54171 9.54167 9.16671 10 9.16671Z" fill="white"/>
</svg>
