<svg width="20" height="20" viewBox="0 0 20 20" fill="none" xmlns="http://www.w3.org/2000/svg">
<g clip-path="url(#clip0_1036_14220)">
<path d="M11.9316 18.0697C12.2203 18.3548 12.1734 18.8547 11.8144 19.0464C8.77875 20.6793 4.91109 20.2148 2.34789 17.6515C-0.214692 15.0889 -0.679848 11.2248 0.953667 8.18546C1.14472 7.83019 1.64468 7.7832 1.93035 8.06827L6.49332 12.6313L7.56339 11.5612C7.53652 11.4593 7.50113 11.3659 7.50113 11.256C7.50114 11.0087 7.57446 10.767 7.71184 10.5614C7.84921 10.3558 8.04446 10.1956 8.2729 10.101C8.50133 10.0064 8.7527 9.98164 8.9952 10.0299C9.23771 10.0781 9.46046 10.1972 9.63529 10.372C9.81013 10.5469 9.92919 10.7696 9.97742 11.0121C10.0257 11.2546 10.0009 11.506 9.90627 11.7344C9.81165 11.9629 9.65142 12.1581 9.44583 12.2955C9.24024 12.4328 8.99854 12.5062 8.75128 12.5062C8.64203 12.5062 8.548 12.4714 8.44668 12.4439L7.37597 13.5146L11.9316 18.0697ZM19.9991 11.8383C20.0038 11.9235 19.9912 12.0088 19.962 12.0889C19.9328 12.1691 19.8876 12.2424 19.8291 12.3046C19.7706 12.3667 19.7001 12.4163 19.6219 12.4503C19.5436 12.4843 19.4593 12.5021 19.374 12.5025H18.1195C17.961 12.502 17.8085 12.4412 17.6932 12.3323C17.5779 12.2234 17.5084 12.0748 17.4987 11.9165C17.2057 6.85714 13.1427 2.75499 8.0871 2.48152C7.9283 2.47306 7.77884 2.4038 7.66973 2.2881C7.56062 2.1724 7.50023 2.01914 7.50109 1.86011V0.625814C7.50144 0.540483 7.51915 0.456117 7.55315 0.377854C7.58715 0.29959 7.63673 0.229068 7.69887 0.170583C7.76101 0.112098 7.8344 0.0668746 7.91457 0.0376677C7.99475 0.00846069 8.08003 -0.00411844 8.16523 0.000696503C14.5412 0.336478 19.667 5.4623 19.9991 11.8383ZM16.2486 11.8267C16.2544 11.9131 16.2425 11.9997 16.2135 12.0812C16.1845 12.1628 16.1392 12.2375 16.0802 12.3008C16.0212 12.3642 15.9499 12.4147 15.8706 12.4494C15.7913 12.4841 15.7058 12.5022 15.6192 12.5025H14.3611C14.2047 12.5013 14.0543 12.4418 13.9394 12.3355C13.8246 12.2293 13.7536 12.084 13.7403 11.9281C13.4705 8.91984 11.0794 6.50191 8.07921 6.25527C7.92223 6.24401 7.77533 6.17372 7.66807 6.05854C7.56081 5.94336 7.50115 5.79184 7.50109 5.63445V4.37999C7.50107 4.29338 7.5189 4.20769 7.55347 4.12827C7.58804 4.04886 7.63861 3.97742 7.70203 3.91842C7.76544 3.85942 7.84033 3.81413 7.92203 3.78536C8.00373 3.7566 8.09048 3.74498 8.17687 3.75124C12.4785 4.08331 15.9202 7.52495 16.2486 11.8267Z" fill="white"/>
</g>
<defs>
<clipPath id="clip0_1036_14220">
<rect width="20" height="20" fill="white"/>
</clipPath>
</defs>
</svg>
