<svg width="59" height="58" viewBox="0 0 59 58" fill="none" xmlns="http://www.w3.org/2000/svg">
<path fill-rule="evenodd" clip-rule="evenodd" d="M24.4337 2.80989C26.9462 -0.608344 32.0534 -0.608343 34.566 2.80989C36.8323 5.89307 40.6378 7.46464 44.4258 6.88594C48.6284 6.24385 52.2558 9.87154 51.6138 14.0742C51.0352 17.862 52.6068 21.6675 55.6899 23.9338C59.1082 26.4464 59.1082 31.5536 55.6899 34.0661C52.6068 36.3324 51.0352 40.1379 51.6138 43.9259C52.2558 48.1285 48.6284 51.7559 44.4258 51.1139C40.6378 50.5353 36.8323 52.1069 34.566 55.1901C32.0534 58.6083 26.9462 58.6083 24.4337 55.1901C22.1674 52.1069 18.3619 50.5353 14.5741 51.1139C10.3714 51.7559 6.74373 48.1285 7.38582 43.9259C7.96452 40.1379 6.39294 36.3324 3.30977 34.0661C-0.108466 31.5536 -0.108466 26.4464 3.30977 23.9338C6.39294 21.6675 7.96452 17.862 7.38582 14.0742C6.74373 9.87154 10.3714 6.24385 14.5741 6.88594C18.3619 7.46464 22.1674 5.89307 24.4337 2.80989ZM16.4691 28.9993C16.4691 21.8024 22.3034 15.9682 29.5003 15.9682C36.6971 15.9682 42.5315 21.8024 42.5315 28.9993C42.5315 36.1962 36.6971 42.0303 29.5003 42.0303C22.3034 42.0303 16.4691 36.1962 16.4691 28.9993Z" fill="#8158F4"/>
</svg>
