<svg width="18" height="13" viewBox="0 0 18 13" fill="none" xmlns="http://www.w3.org/2000/svg">
<path fill-rule="evenodd" clip-rule="evenodd" d="M18 10.6824V9.68237C18 8.50048 17.7672 7.33015 17.3149 6.23822C16.8626 5.14629 16.1997 4.15414 15.364 3.31841C14.5282 2.48268 13.5361 1.81975 12.4442 1.36746C11.3522 0.915165 10.1819 0.682373 9 0.682373C7.8181 0.682373 6.64778 0.915165 5.55585 1.36746C4.46392 1.81975 3.47177 2.48268 2.63604 3.31841C1.80031 4.15414 1.13738 5.14629 0.685084 6.23822C0.232792 7.33015 -1.76116e-08 8.50048 0 9.68237V10.6824C0 11.2128 0.210714 11.7215 0.585786 12.0966C0.960859 12.4717 1.46957 12.6824 2 12.6824H16C16.5304 12.6824 17.0391 12.4717 17.4142 12.0966C17.7893 11.7215 18 11.2128 18 10.6824ZM12.555 4.85037C12.6643 4.92325 12.7581 5.01693 12.8312 5.12608C12.9042 5.23522 12.9551 5.35769 12.9808 5.48649C13.0065 5.61529 13.0066 5.7479 12.9811 5.87674C12.9556 6.00557 12.9049 6.12812 12.832 6.23737L11.25 8.61037C11.716 9.11837 12 9.79537 12 10.5404C11.9997 10.5781 11.9846 10.6142 11.9578 10.6408C11.931 10.6674 11.8948 10.6824 11.857 10.6824H6.143C6.12422 10.6824 6.10563 10.6787 6.08828 10.6715C6.07093 10.6643 6.05516 10.6538 6.04188 10.6405C6.0286 10.6272 6.01807 10.6114 6.01089 10.5941C6.0037 10.5767 6 10.5582 6 10.5394C6 9.78165 6.301 9.05496 6.8368 8.51917C7.37259 7.98338 8.09928 7.68237 8.857 7.68237H9.143C9.24656 7.6825 9.35004 7.68818 9.453 7.69937L11.168 5.12737C11.2409 5.0181 11.3346 4.92425 11.4437 4.85119C11.5529 4.77813 11.6753 4.72729 11.8041 4.70157C11.9329 4.67584 12.0655 4.67575 12.1944 4.70128C12.3232 4.72681 12.4457 4.77747 12.555 4.85037Z" fill="white"/>
</svg>
