<svg width="12" height="12" viewBox="0 0 12 12" fill="none" xmlns="http://www.w3.org/2000/svg">
<path d="M5.07088 1.1024C5.13148 0.998411 5.21829 0.912126 5.32265 0.852157C5.427 0.792187 5.54526 0.760628 5.66562 0.760628C5.78598 0.760628 5.90424 0.792187 6.0086 0.852157C6.11295 0.912126 6.19976 0.998411 6.26036 1.1024L7.79953 3.74459L10.7886 4.39219C10.9062 4.41774 11.0151 4.47367 11.1043 4.55439C11.1935 4.63511 11.26 4.73781 11.2972 4.85225C11.3343 4.96669 11.3409 5.08887 11.3161 5.20661C11.2913 5.32436 11.2361 5.43355 11.156 5.5233L9.11842 7.80369L9.4268 10.8462C9.43897 10.966 9.41949 11.0869 9.37032 11.1969C9.32115 11.3068 9.244 11.4019 9.14657 11.4727C9.04915 11.5434 8.93486 11.5874 8.81513 11.6002C8.69539 11.613 8.57439 11.5942 8.4642 11.5456L5.66562 10.3121L2.86704 11.5456C2.75686 11.5942 2.63586 11.613 2.51612 11.6002C2.39638 11.5874 2.28209 11.5434 2.18467 11.4727C2.08725 11.4019 2.0101 11.3068 1.96093 11.1969C1.91175 11.0869 1.89228 10.966 1.90444 10.8462L2.21283 7.80369L0.175291 5.52385C0.0950168 5.4341 0.0396882 5.32487 0.0148294 5.20705C-0.0100295 5.08924 -0.00354887 4.96696 0.0336242 4.85243C0.0707972 4.7379 0.137362 4.63513 0.226674 4.55437C0.315985 4.47361 0.424919 4.41769 0.542598 4.39219L3.53172 3.74459L5.07088 1.1024Z" fill="#FCDB4C"/>
</svg>
