<svg width="20" height="20" viewBox="0 0 20 20" fill="none" xmlns="http://www.w3.org/2000/svg">
<path fill-rule="evenodd" clip-rule="evenodd" d="M10 17.4999V12.4999H11.25V17.4999H17.5V6.24992H18.75V17.4999C18.75 17.8314 18.6183 18.1494 18.3839 18.3838C18.1495 18.6182 17.8315 18.7499 17.5 18.7499H2.5C2.16848 18.7499 1.85054 18.6182 1.61612 18.3838C1.3817 18.1494 1.25 17.8314 1.25 17.4999V14.9999H2.5V17.4999H10ZM16.0662 4.81742L12.3175 8.56742C12.518 8.98483 12.557 9.46167 12.4269 9.90609C12.2968 10.3505 12.0068 10.7311 11.6129 10.9745C11.2189 11.2179 10.7489 11.3068 10.2932 11.2243C9.83754 11.1418 9.42854 10.8935 9.145 10.5274L5.7525 11.6574L5 11.9087C4.99211 12.3509 4.82811 12.7762 4.53699 13.1092C4.24587 13.4423 3.84637 13.6617 3.40913 13.7286C2.97188 13.7956 2.52504 13.7058 2.14759 13.4751C1.77014 13.2445 1.4864 12.8878 1.34652 12.4682C1.20663 12.0485 1.21962 11.5929 1.38319 11.1819C1.54675 10.7709 1.85035 10.431 2.24033 10.2222C2.6303 10.0134 3.08153 9.94926 3.51425 10.041C3.94698 10.1328 4.33332 10.3746 4.605 10.7237L8.75 9.34117C8.75558 9.02733 8.83986 8.71991 8.99511 8.44711C9.15036 8.1743 9.37161 7.94483 9.63858 7.77975C9.90555 7.61466 10.2097 7.51924 10.5231 7.50224C10.8366 7.48523 11.1492 7.54719 11.4325 7.68242L15.1825 3.93242C14.9919 3.5333 14.9485 3.07963 15.06 2.6516C15.1715 2.22358 15.4307 1.84875 15.7918 1.59337C16.153 1.33799 16.5928 1.2185 17.0335 1.25603C17.4742 1.29356 17.8875 1.48568 18.2002 1.79845C18.513 2.11121 18.7051 2.52447 18.7426 2.96519C18.7802 3.40591 18.6607 3.8457 18.4053 4.20684C18.1499 4.56798 17.7751 4.82721 17.3471 4.93872C16.919 5.05022 16.4654 5.00681 16.0662 4.81617" fill="white"/>
</svg>
